
<svg width="140px" height="31px" viewBox="0 0 140 31" version="1.1" xmlns="http://www.w3.org/2000/svg" xmlns:xlink="http://www.w3.org/1999/xlink">
    <defs></defs>
    <g id="Symbols" stroke="none" stroke-width="1" fill="none" fill-rule="evenodd">
        <g id="Logo/Dark" transform="translate(0.000000, -25.000000)" fill-rule="nonzero">
            <g id="ClearLabsLogo" transform="translate(0.000000, 25.000000)">
                <path d="M29.3663675,16.6190339 C29.3663675,16.6190339 18.72229,16.614012 18.3495731,16.6117801 L18.3495731,29.3980131 C18.3377675,30.0720593 17.7441188,30.6200008 17.0599611,30.6200008 C14.4481313,30.6099571 12.5165242,30.5150996 9.58763201,29.3321708 C7.35245444,28.4299086 5.89587872,27.3803382 4.94750232,26.3592252 C1.83421927,23.5129422 0.0313484304,19.5088397 0.000429223567,15.3440375 C-0.0299278159,11.2534474 1.5508869,7.40279086 4.45335718,4.50070936 C7.35582745,1.59806987 11.222977,0 15.3425397,0 C23.7666181,0 30.6200008,6.80239868 30.6200008,15.1638083 L30.6200008,15.3747267 C30.6200008,16.0610486 30.0578334,16.6190339 29.3663675,16.6190339 M10.5163326,27.0650765 C12.5536272,27.8875469 13.9629809,28.1018132 15.8839069,28.1559378 L15.8839069,16.6257297 C13.8724719,16.6854342 11.9054482,17.0793718 10.067723,17.904632 C9.40324111,18.2025962 8.72470506,18.5730984 8.10688309,18.9982832 C6.74700016,19.9351405 5.67831993,21.1403887 5.68843895,22.4388205 C5.70530397,24.7801268 8.65443413,26.3134704 10.5163326,27.0650765 M15.3425397,2.44732349 C11.8852102,2.44732349 8.63925561,3.78872013 6.20338428,6.22488391 C3.76751295,8.6604897 2.44079789,11.8923405 2.46609543,15.325624 C2.48014961,17.148562 2.87647763,18.9006358 3.62022509,20.5020536 C3.63034411,20.4775022 3.80742684,20.0869125 3.8821951,19.9440683 C4.49327106,18.8068942 5.46469632,17.8549713 6.51145202,17.110061 C11.2707612,13.7247642 17.053215,14.1594347 22.6237318,14.1594347 L28.1155451,14.1594347 C27.6039728,7.60924542 22.0705591,2.44732349 15.3425397,2.44732349" id="path22-copy" fill="#39C5F3" transform="translate(15.310000, 15.310000) scale(1, -1) translate(-15.310000, -15.310000) "></path>
                <path d="M52.1071692,12.0227499 C51.5011724,11.289026 50.179755,10.0581553 48.144028,10.0581553 C45.1384839,10.0581553 42.9572288,12.2665806 42.9572288,15.3097214 C42.9572288,18.3037614 45.1079341,20.5618456 47.9596183,20.5618456 C49.3615761,20.5618456 50.822967,19.949758 51.6822493,19.0017755 L51.8361092,18.8321542 L53.5269013,20.5054911 L53.3847059,20.6622793 C52.0777303,22.1040607 50.0497796,22.9650006 47.9596183,22.9650006 C43.6854247,22.9650006 40.462144,19.6741233 40.462144,15.3097214 C40.462144,10.9458775 43.7648542,7.65500021 48.144028,7.65500021 C50.3752737,7.65500021 52.5837459,8.71624956 53.9090514,10.4247382 L54.0345833,10.5865481 L52.2532527,12.1996248 L52.1071692,12.0227499 Z M55.9711624,7.86172623 L58.3634888,7.86172623 L58.3634888,22.9647216 L55.9711624,22.9647216 L55.9711624,7.86172623 Z M65.3382285,18.2151566 C62.4832116,18.2151566 60.4113802,15.994456 60.4113802,12.9356921 C60.4113802,9.92491324 62.6531795,7.6551118 65.6265074,7.6551118 C68.1271468,7.6551118 69.4269015,8.98585822 69.8695958,9.5577723 L69.991795,9.71567638 L68.4093157,11.2277614 L68.2582331,11.059256 C67.6777871,10.4103428 66.9590338,9.81053043 65.6465037,9.81053043 C64.192889,9.81053043 62.9703419,10.8868448 62.7653806,12.301286 L70.160652,12.301286 L70.1823146,12.4976897 C70.2039772,12.6957672 70.2039772,12.8514394 70.2039772,12.9356921 C70.2039772,15.9453551 68.1121496,18.2151566 65.3382285,18.2151566 Z M62.9881163,14.3947705 C63.3691555,15.3885061 64.3234199,16.0597379 65.3998835,16.0597379 C66.3852532,16.0597379 67.3100787,15.3611658 67.6555691,14.3947705 L62.9881163,14.3947705 Z M79.6405301,17.3525427 C78.8345711,17.9255727 77.8941929,18.2151566 76.838281,18.2151566 C75.9317854,18.2151566 75.0758358,17.9902967 74.3620815,17.5651274 C72.7373881,16.59929 71.7670156,14.8684828 71.7670156,12.9351342 C71.7670156,11.0068073 72.7296118,9.28381151 74.3415299,8.32634364 C75.0458414,7.90619603 75.9939959,7.6551118 76.8793844,7.6551118 C77.9025247,7.6551118 78.8656763,7.95641288 79.6405301,8.51158801 L79.6405301,7.86155884 L81.9712015,7.86155884 L81.9712015,18.0087095 L79.6405301,18.0087095 L79.6405301,17.3525427 Z M79.5788751,14.6765428 L79.5788751,11.1920517 C78.9773219,10.4164804 78.0736035,9.95504335 77.1465562,9.95504335 C75.4718722,9.95504335 74.159342,11.2640291 74.159342,12.9351342 C74.159342,14.3802634 75.1702624,15.915225 77.0437978,15.915225 C78.0186139,15.915225 78.9606584,15.453788 79.5788751,14.6765428 Z M89.1518468,18.2151566 C87.9587386,18.2151566 87.0472439,17.7671107 86.4729078,17.2448555 L86.4729078,18.0087095 L84.1422364,18.0087095 L84.1422364,7.86155884 L86.5340073,7.86155884 L86.5340073,14.4444294 C87.0505766,15.2997897 88.0470552,15.915225 88.9257783,15.915225 C89.2301653,15.915225 89.4340158,15.8934644 89.6284235,15.8404577 L89.8739328,15.7729439 L90.1555463,18.112491 L89.9516959,18.1498747 C89.7050757,18.1945119 89.364029,18.2151566 89.1518468,18.2151566 Z M100.589078,22.7582188 L98.0934376,22.7582188 L98.0934376,7.86167043 L106.961764,7.86167043 L106.961764,10.2648255 L100.589078,10.2648255 L100.589078,22.7582188 Z M115.969565,17.3526543 C115.164161,17.9251264 114.223783,18.2152681 113.167316,18.2152681 C112.26082,18.2152681 111.404871,17.9904083 110.691672,17.564681 C109.066423,16.5994016 108.096606,14.8685943 108.096606,12.9352458 C108.096606,11.0074768 109.058647,9.2839231 110.670565,8.32589727 C111.374876,7.90630763 112.324142,7.6552234 113.208419,7.6552234 C114.23156,7.6552234 115.195267,7.95652447 115.969565,8.5116996 L115.969565,7.86167043 L118.300236,7.86167043 L118.300236,18.0088211 L115.969565,18.0088211 L115.969565,17.3526543 Z M115.90791,14.6766544 L115.90791,11.1921633 C115.306357,10.416034 114.402638,9.95515494 113.475591,9.95515494 C111.800352,9.95515494 110.488377,11.2641407 110.488377,12.9352458 C110.488377,14.379817 111.499297,15.9153366 113.373388,15.9153366 C114.347649,15.9153366 115.289693,15.4533416 115.90791,14.6766544 Z M128.312958,17.5647368 C127.599204,17.9904641 126.742699,18.2153239 125.836759,18.2153239 C124.828616,18.2153239 123.889904,17.9296459 123.096165,17.3845141 L123.096165,22.9647216 L120.703283,22.9647216 L120.703283,7.86172623 L123.03451,7.86172623 L123.03451,8.5117554 C123.808808,7.95658027 124.772515,7.65527919 125.7951,7.65527919 C126.679933,7.65527919 127.628643,7.90580546 128.33351,8.32595307 C129.945428,9.2839789 130.908024,11.0075326 130.908024,12.9353016 C130.908024,14.8686501 129.937652,16.5988995 128.312958,17.5647368 Z M128.515698,12.9353016 C128.515698,11.2641965 127.203168,9.95521074 125.527928,9.95521074 C124.601436,9.95521074 123.697718,10.4160898 123.096165,11.192219 L123.096165,14.6767102 C123.714382,15.4533974 124.656426,15.9153924 125.631242,15.9153924 C127.504778,15.9153924 128.515698,14.3798728 128.515698,12.9353016 Z M136.29673,14.1403943 C135.353575,14.3819931 134.735358,14.5767229 134.735358,15.0621524 C134.735358,15.7172032 135.504102,16.0597937 136.263403,16.0597937 C136.926611,16.0597937 137.580377,15.8181949 138.20637,15.3411349 L138.38578,15.2044334 L139.646098,16.9609071 L139.485573,17.0920289 C138.57019,17.8374701 137.444291,18.2152124 136.139537,18.2152124 C134.310993,18.2152124 132.343031,17.1963683 132.343031,14.9589289 C132.343031,13.7068555 133.162321,12.7700323 134.71314,12.2511249 C135.060297,12.1350682 135.412452,12.0441199 135.752944,11.9565194 C136.88884,11.6647038 137.58482,11.4526771 137.58482,10.8082276 C137.58482,10.1838648 136.839405,9.81058622 136.118986,9.81058622 C135.203603,9.81058622 134.262114,10.1660099 133.396166,10.8383577 L133.213978,10.9800808 L131.956438,9.17618007 L132.115852,9.0467322 C133.253971,8.1233002 134.61427,7.6551676 136.160089,7.6551676 C138.33579,7.6551676 139.977147,9.02831936 139.977147,10.849517 C139.977147,13.1912959 137.398189,13.8563901 136.29673,14.1403943 Z" id="Combined-Shape-Copy" fill="#6D6E71" transform="translate(90.219645, 15.310000) scale(1, -1) translate(-90.219645, -15.310000) "></path>
            </g>
        </g>
    </g>
</svg>