
<svg width="79px" height="80px" viewBox="0 0 79 80" version="1.1" xmlns="http://www.w3.org/2000/svg" xmlns:xlink="http://www.w3.org/1999/xlink">
    <defs></defs>
    <g id="Symbols" stroke="none" stroke-width="1" fill="none" fill-rule="evenodd">
        <g id="Logo/Compact" transform="translate(-1.000000, 0.000000)" fill="#39C5F3" fill-rule="nonzero">
            <path d="M76.7665235,43.1864857 C76.7665235,43.1864857 49.3124234,43.1734358 48.3510804,43.1676358 L48.3510804,76.3941439 C48.3206306,78.1457312 46.7894417,79.5696208 45.0248046,79.5696208 C38.2881536,79.543521 33.3059899,79.2970228 25.7515449,76.2230452 C19.9863868,73.8784123 16.2294642,71.1509821 13.783332,68.4975014 C5.75329042,61.1011053 1.10317427,50.695981 1.02342485,39.8732598 C0.94512542,29.2433871 5.02249574,19.23701 12.5087913,11.6956149 C19.9950868,4.15276977 29.9695642,0 40.5950868,0 C62.3231787,0 80,17.6768213 80,39.4049132 L80,39.9530092 C80,41.7364962 78.5500106,43.1864857 76.7665235,43.1864857 M28.1469274,70.3317381 C33.4016892,72.4690225 37.0368127,73.0258185 41.9914267,73.1664674 L41.9914267,43.2038855 C36.8033644,43.3590344 31.7298513,44.3827269 26.9898358,46.5272613 C25.2759483,47.3015557 23.5258111,48.2643487 21.9322727,49.3692407 C18.4247482,51.8037729 15.6683183,54.9357501 15.6944181,58.3098756 C15.7379177,64.3940313 23.3445624,68.3786023 28.1469274,70.3317381 M40.5950868,6.35965371 C31.6776517,6.35965371 23.3054127,9.84542834 17.0226084,16.1760823 C10.7398041,22.5052862 7.31782904,30.9036251 7.38307856,39.8254101 C7.4193283,44.5625256 8.44157086,49.1154925 10.3599069,53.2769622 C10.3860067,53.2131627 10.8427534,52.1981701 11.035602,51.8269728 C12.6117405,48.8718943 15.1173223,46.3982123 17.8172026,44.4624764 C30.0928133,35.6653904 45.0074047,36.7949322 59.3753501,36.7949322 L73.540297,36.7949322 C72.2208066,19.7735061 57.9485605,6.35965371 40.5950868,6.35965371" id="path22" transform="translate(40.511159, 39.784810) scale(1, -1) translate(-40.511159, -39.784810) "></path>
        </g>
    </g>
</svg>